<svg id="Layer_1" data-name="Layer 1" xmlns="http://www.w3.org/2000/svg" viewBox="0 0 419.5 108.97"><defs><style>.cls-1{fill:#ac0;}.cls-2{fill:#fff;}</style></defs><title>Inversa_Logo_1</title><path class="cls-1" d="M0,55.51C.13,45.7,3,37.75,8.67,30.83c1.62-2,3.68-2.34,5.32-1s1.57,3.42,0,5.29A30.75,30.75,0,1,0,65.13,68.59c1-1.88,2.28-2.7,3.84-2.44,2.44.42,3.56,2.81,2.39,5.24a36.34,36.34,0,0,1-12.29,14.3C36.32,101.39,4.9,88,.5,60.75A29.67,29.67,0,0,1,0,55.51Z" transform="translate(0 0)"/><path class="cls-1" d="M79.28,3c8.91,4.11,15,10,19,18,1.15,2.28.65,4.31-1.27,5.26s-3.76,0-4.85-2.12a30.7,30.7,0,1,0-51.33,33c1.32,1.66,1.54,3.18.67,4.5-1.37,2.06-4,2.12-5.76,0a36.34,36.34,0,0,1-8.06-17C22.61,17.49,47.6-5.78,74.3,1.28A29.67,29.67,0,0,1,79.28,3Z" transform="translate(0 0)"/><path class="cls-1" d="M85.27,102.65c-8.32,5.2-16.56,7.08-25.45,6.06-2.53-.29-4-1.83-3.71-3.95s2-3.17,4.43-2.89A30.74,30.74,0,1,0,61,40.8c-2.11.19-3.51-.45-4.13-1.91-1-2.28.43-4.52,3.12-4.84a36.34,36.34,0,0,1,18.67,2.6c25.5,10.64,31.25,44.3,10.7,62.75A29.67,29.67,0,0,1,85.27,102.65Z" transform="translate(0 0)"/><path class="cls-2" d="M146.54,23.69c.1,3-2.11,5.42-5.61,5.42a5.25,5.25,0,0,1-5.32-5.18q0-.12,0-.24a5.38,5.38,0,0,1,5.23-5.52h.29a5.24,5.24,0,0,1,5.42,5.06Q146.55,23.46,146.54,23.69Zm-9.83,62.2V37.34h8.83V85.89Z" transform="translate(0 0)"/><path class="cls-2" d="M160.19,50.47c0-5-.1-9.13-.4-13.14h7.83l.5,8h.2a17.86,17.86,0,0,1,16.05-9.13c6.72,0,17.15,4,17.15,20.66v29h-8.83v-28c0-7.83-2.91-14.34-11.24-14.34a12.54,12.54,0,0,0-11.83,9,12.69,12.69,0,0,0-.6,4.11v29.2h-8.83Z" transform="translate(0 0)"/><path class="cls-2" d="M218,37.34l9.53,27.29a124.86,124.86,0,0,1,3.91,12.44h.3c1.11-4,2.51-8,4.12-12.44l9.43-27.29h9.23L235.43,85.89H227L208.54,37.34Z" transform="translate(0 0)"/><path class="cls-2" d="M266.73,63.22c.2,11.91,7.83,16.85,16.66,16.85a31.92,31.92,0,0,0,13.44-2.51l1.51,6.32c-3.11,1.4-8.43,3-16.16,3-14.95,0-23.88-9.83-23.88-24.48S267,36.23,281.08,36.23c15.85,0,20.06,13.94,20.06,22.88a33.32,33.32,0,0,1-.3,4.11Zm25.88-6.32c.1-5.61-2.31-14.34-12.24-14.34-8.93,0-12.84,8.23-13.54,14.34Z" transform="translate(0 0)"/><path class="cls-2" d="M312,52.48c0-5.72-.1-10.63-.4-15.15h7.72l.33,9.54h.4c2.2-6.53,7.52-10.63,13.44-10.63a9.55,9.55,0,0,1,2.51.3v8.33a13.26,13.26,0,0,0-3-.3c-6.22,0-10.63,4.71-11.83,11.34a24.84,24.84,0,0,0-.4,4.11V85.89H312Z" transform="translate(0 0)"/><path class="cls-2" d="M343.67,76.86a23.13,23.13,0,0,0,11.64,3.51c6.42,0,9.43-3.21,9.43-7.22,0-4.25-2.51-6.53-9-8.93-8.73-3.11-12.84-7.93-12.84-13.75,0-7.83,6.32-14.25,16.75-14.25a24.24,24.24,0,0,1,11.91,3l-2.2,6.42a18.89,18.89,0,0,0-9.93-2.81c-5.22,0-8.12,3-8.12,6.62,0,4,2.91,5.82,9.23,8.23,8.43,3.21,12.76,7.43,12.76,14.65,0,8.51-6.62,14.55-18.15,14.55a27.69,27.69,0,0,1-13.61-3.31Z" transform="translate(0 0)"/><path class="cls-2" d="M411.49,85.89l-.71-6.12h-.3A18.09,18.09,0,0,1,395.65,87c-9.83,0-14.85-6.92-14.85-13.94C380.8,61.31,391.23,54.9,410,55V54c0-4-1.11-11.24-11.06-11.24a24.19,24.19,0,0,0-12.64,3.62l-2-5.82a30.12,30.12,0,0,1,16-4.31c14.85,0,18.46,10.13,18.46,19.86V74.25a68.37,68.37,0,0,0,.8,11.64Zm-1.3-24.78c-9.63-.2-20.56,1.51-20.56,10.93,0,5.72,3.81,8.43,8.33,8.43a12.08,12.08,0,0,0,11.74-8.12,9.21,9.21,0,0,0,.5-2.81Z" transform="translate(0 0)"/></svg>